<svg xmlns="http://www.w3.org/2000/svg"  viewBox="0 0 48 48" width="48px" height="48px"><path fill="#eceff1" d="M2 9H46V39H2z"/><path fill="#d50000" d="M32 9H46V39H32z"/><path fill="#1b5e20" d="M2 9H16V39H2z"/><path fill="#039be5" d="M25.906,26.479c-0.258,0.072-0.711,0.145-1.256,0.078c-0.545-0.066-1.147,0.036-1.56-0.181 c-0.516,0.151-0.74-0.283-0.82-0.597c-0.057,0.283-0.052,0.44-0.258,0.38c-0.206-0.06-0.843-0.362-0.998-0.422 c-0.155-0.06-0.189,0.084,0.063,0.223c0.252,0.139,0.487,0.296,0.493,0.392c0.006,0.096-0.218,0.217-0.298,0.259 c0.379,0,0.8,0.083,0.935,0.115c0.252,0.06,0.27,0.241-0.143,0.531c1.049-0.121,0.88,0.416,1.413,0.41 c0.39-0.004,0.949-0.006,1.127-0.006c0.425,0,0.445-0.296,0.591-0.344c0.32-0.106,0.654-0.205,0.906-0.289 c-0.258-0.06-0.401-0.127-0.401-0.187c0-0.06,0.516-0.265,0.763-0.374C26.376,26.437,26.164,26.407,25.906,26.479z"/><path fill="#fbc02d" d="M25.195,26.25c-0.063-0.094-0.212-0.115-0.287-0.006c-0.436-0.09-1.405-0.066-1.72,0 c-0.075-0.109-0.224-0.088-0.287,0.006c-0.067,0.099-0.023,0.217,0.052,0.265c-0.08,0.127-0.052,0.464,0,0.609 c-0.075,0.048-0.118,0.166-0.052,0.265c0.063,0.094,0.212,0.115,0.287,0.006c0.361,0.151,1.348,0.151,1.72,0 c0.075,0.108,0.224,0.087,0.287-0.006c0.067-0.099,0.023-0.217-0.052-0.265c0.052-0.145,0.08-0.482,0-0.609 C25.218,26.467,25.262,26.349,25.195,26.25z"/><path fill="#bf360c" d="M25.236,26.223c-0.042-0.063-0.114-0.102-0.189-0.102c-0.001,0-0.001,0-0.002,0 c-0.061,0-0.116,0.024-0.156,0.068c-0.353-0.066-0.986-0.065-1.403-0.031c-0.002,0-0.003-0.002-0.004-0.002 c-0.005,0-0.011,0.001-0.017,0.001l0,0.003c-0.096,0.008-0.194,0.017-0.257,0.028c-0.041-0.044-0.097-0.068-0.157-0.068H23.05 c-0.075,0-0.148,0.039-0.19,0.101c-0.036,0.054-0.05,0.118-0.037,0.181c0.01,0.048,0.034,0.093,0.067,0.126 c-0.063,0.153-0.037,0.432,0.005,0.579c-0.036,0.033-0.062,0.079-0.072,0.129c-0.013,0.063,0,0.127,0.037,0.182 c0.042,0.063,0.115,0.102,0.191,0.102c0.059,0,0.112-0.023,0.152-0.064c0.192,0.069,0.516,0.104,0.841,0.104 c0.554,0,0.802-0.087,0.849-0.104c0.04,0.041,0.094,0.064,0.152,0.064c0,0,0,0,0.001,0c0.075-0.001,0.148-0.04,0.189-0.102 c0.037-0.054,0.05-0.118,0.037-0.182c-0.01-0.05-0.035-0.096-0.071-0.129c0.041-0.148,0.066-0.427,0.005-0.579 c0.033-0.033,0.058-0.078,0.067-0.126C25.285,26.34,25.272,26.275,25.236,26.223z M23.246,27.361 c0.022-0.072,0.013-0.142-0.025-0.182c-0.049-0.052-0.121-0.061-0.182-0.025l0.051,0.086c0.032-0.02,0.049-0.002,0.059,0.008 c0.022,0.024,0.031,0.07-0.002,0.119c-0.023,0.033-0.057,0.052-0.096,0.052c-0.043,0-0.085-0.021-0.109-0.058 c-0.026-0.04-0.026-0.079-0.021-0.104c0.007-0.037,0.029-0.071,0.059-0.09l0.033-0.021l-0.014-0.037 c-0.05-0.142-0.072-0.458-0.005-0.566l0.026-0.041l-0.041-0.027c-0.029-0.019-0.052-0.054-0.059-0.091 c-0.006-0.025-0.006-0.064,0.021-0.104c0.024-0.035,0.065-0.058,0.108-0.058c0.001,0,0.001,0,0.001,0 c0.039,0,0.072,0.019,0.096,0.052c0.033,0.049,0.024,0.095,0.002,0.119c-0.011,0.01-0.035,0.025-0.059,0.009l-0.051,0.086 c0.024,0.015,0.051,0.021,0.076,0.021c0.039,0,0.076-0.016,0.106-0.048c0.034-0.036,0.042-0.097,0.03-0.162 c0.134,0.028,0.249,0.314,0.351,0.574c0.091,0.235,0.174,0.461,0.293,0.582C23.637,27.446,23.398,27.415,23.246,27.361z M24.097,27.456c-0.163-0.013-0.29-0.333-0.402-0.621c-0.092-0.236-0.182-0.458-0.3-0.57c0.027-0.003,0.056-0.005,0.086-0.008 c0.146,0,0.282,0.313,0.402,0.589c0.106,0.244,0.209,0.485,0.345,0.606C24.185,27.455,24.141,27.456,24.097,27.456z M24.417,27.44 c-0.171-0.012-0.315-0.339-0.443-0.632c-0.1-0.231-0.198-0.446-0.318-0.561c0.036-0.002,0.07-0.004,0.108-0.006 c0.148,0.014,0.284,0.333,0.41,0.612c0.108,0.24,0.213,0.468,0.34,0.579C24.484,27.435,24.45,27.437,24.417,27.44z M25.102,26.542 c0.067,0.107,0.045,0.424-0.005,0.566l-0.014,0.037l0.033,0.021c0.029,0.019,0.051,0.053,0.059,0.09 c0.005,0.025,0.006,0.064-0.022,0.105c-0.023,0.035-0.064,0.057-0.107,0.057c-0.039,0-0.072-0.019-0.096-0.052 c-0.033-0.049-0.024-0.095-0.002-0.119c0.01-0.01,0.026-0.027,0.059-0.008l0.051-0.086c-0.06-0.035-0.131-0.026-0.182,0.025 c-0.038,0.04-0.047,0.109-0.025,0.182c-0.051,0.017-0.109,0.032-0.176,0.045c-0.139-0.028-0.288-0.329-0.407-0.594 c-0.107-0.237-0.21-0.457-0.334-0.575c0.33-0.006,0.681,0.007,0.915,0.048c-0.018,0.07-0.01,0.136,0.026,0.175 c0.03,0.032,0.067,0.048,0.106,0.048c0.025,0,0.052-0.007,0.076-0.021L25.006,26.4c-0.026,0.017-0.049,0.001-0.059-0.009 c-0.022-0.024-0.031-0.07,0.002-0.119c0.031-0.045,0.073-0.052,0.096-0.052h0.001c0.043,0.001,0.084,0.022,0.107,0.058 c0.027,0.04,0.026,0.079,0.021,0.104c-0.007,0.037-0.029,0.072-0.059,0.091l-0.041,0.027L25.102,26.542z"/><path fill="#fff" d="M21.301,26.424c-0.231,0-0.231,0.363,0,0.363C21.532,26.787,21.536,26.424,21.301,26.424z"/><path fill="#1976d2" d="M21.301,26.374c-0.146,0-0.224,0.116-0.224,0.23c0,0.115,0.077,0.231,0.224,0.231 c0.147,0,0.225-0.116,0.225-0.231S21.448,26.374,21.301,26.374z M21.301,26.736c-0.098,0-0.124-0.083-0.124-0.132 c0-0.048,0.026-0.131,0.124-0.131c0.086,0,0.125,0.065,0.125,0.131C21.426,26.653,21.399,26.736,21.301,26.736z"/><path fill="#fff" d="M22.218,25.628c-0.231,0-0.231,0.363,0,0.363C22.45,25.991,22.453,25.628,22.218,25.628z"/><path fill="#1976d2" d="M22.219,25.578c-0.146,0-0.224,0.116-0.224,0.231s0.077,0.231,0.224,0.231 c0.147,0,0.225-0.117,0.225-0.232C22.443,25.694,22.366,25.578,22.219,25.578z M22.219,25.941c-0.098,0-0.124-0.083-0.124-0.132 s0.026-0.132,0.124-0.132c0.086,0,0.125,0.065,0.125,0.131C22.344,25.858,22.317,25.941,22.219,25.941z"/><path fill="#fff" d="M26.015,26.882c-0.232,0-0.232,0.363,0,0.363C26.246,27.245,26.25,26.882,26.015,26.882z"/><path fill="#1976d2" d="M26.015,26.833c-0.146,0-0.224,0.116-0.224,0.23c0,0.115,0.077,0.231,0.224,0.231 c0.147,0,0.225-0.116,0.225-0.232c0-0.059-0.02-0.114-0.056-0.156C26.143,26.858,26.084,26.833,26.015,26.833z M26.015,27.195 c-0.098,0-0.124-0.083-0.124-0.132c0-0.048,0.026-0.131,0.124-0.131c0.086,0,0.125,0.065,0.125,0.13 C26.14,27.112,26.113,27.195,26.015,27.195z"/><path fill="#fbc02d" d="M20.624 25.641c-.052.084.08.247.218.314.138.066.264.012.304-.048.04-.06 0-.217-.161-.302C20.845 25.531 20.676 25.557 20.624 25.641zM22.014 27.056c-.149.05-.254.192-.235.291.019.098.221.118.364.065.143-.053.191-.194.168-.263C22.276 27.046 22.185 26.999 22.014 27.056zM26.302 26.328c-.144.05-.218.173-.196.243.032.103.122.153.294.1.15-.046.317-.209.28-.301C26.634 26.256 26.445 26.279 26.302 26.328zM27.087 27.804c-.033-.063-.198-.126-.262-.153.014-.072-.044-.297-.104-.357.085-.015.12-.135.044-.197-.059-.048-.136-.016-.164.019-.028.035-.027.155.057.178.011.075.08.335.021.44.115.005.319.075.373.125-.028.087.068.153.111.148.043-.005.111-.056.104-.134C27.26 27.772 27.145 27.737 27.087 27.804zM28.736 26.308c-.051-.048-.225-.052-.295-.056-.009-.072-.133-.267-.207-.303.076-.043.073-.168-.018-.201-.071-.026-.134.031-.149.073-.015.042.022.156.109.149.033.067.178.29.154.409.111-.034.325-.037.391-.008 0 .092.111.122.15.102.039-.02.088-.09.058-.162C28.89 26.219 28.771 26.225 28.736 26.308zM29.659 24.326c-.066-.018-.249.017-.312.047-.04-.06-.18-.187-.246-.207.049-.075-.01-.185-.104-.17-.074.011-.105.092-.1.137s.088.128.162.08c.059.044.215.21.245.327.083-.084.298-.144.37-.151.04.081.152.054.178.018.026-.036.038-.122-.02-.172C29.757 24.173 29.654 24.236 29.659 24.326z"/><path fill="#558b2f" d="M29.467 23.566c-.046-.139-.275-.422-.384-.543.08.169-.092.513.086.784.159.242.146.495.089.784l.069.051c.052-.495.221-.57.335-.678.17-.161.373-.434.333-.621-.025-.116-.052-.265-.04-.368C29.777 23.03 29.553 23.392 29.467 23.566zM28.997 25.285c.017-.145-.006-.507-.034-.645-.424.091-.554.668-.493 1.164.046.374-.126.513-.35.712l.069.102c.166-.235.442-.519.78-.663.338-.145.43-.82.705-1.098C29.307 24.881 29.175 25.098 28.997 25.285z"/><path fill="#558b2f" d="M27.781 26.226c-.017.223-.533.434-.711.971-.069.207-.149.338-.447.537l-.017.084c.659-.488.854-.265 1.296-.416s.327-.464.442-.706c-.195.018-.482.139-.625.265C27.798 26.805 27.839 26.497 27.781 26.226zM26.325 27.498c-.872-.121-.975.543-1.411.627.092.084.023.121.482.35.459.229 1.009-.229 1.25-.193-.218-.133-.528-.205-.734-.241C26.095 27.933 26.198 27.619 26.325 27.498z"/><path fill="#1b5e20" d="M29.306,24.469c-0.372,0.189-0.629,0.805-0.711,1.268c-0.062,0.351-0.142,0.478-0.248,0.614 c-0.365,0.015-0.731,0.344-0.916,0.586c-0.17,0.222-0.462,0.518-0.711,0.742c-0.392-0.032-0.84,0.149-1.095,0.277 c-0.264,0.133-0.503,0.134-0.711,0.096c-0.562-0.102-1.204-0.109-1.847,0.374c-0.046,0.03,0.055,0.154,0.12,0.103 c0.545-0.434,1.29-0.615,1.933-0.199c0.354,0.229,1.319-0.084,1.64-0.651c-0.004,0-0.007,0.001-0.011,0 c0.099-0.072,0.197-0.14,0.567-0.266c0.499-0.169,0.895-0.579,1.055-1.067c-0.004,0-0.008,0.002-0.012,0.002 c0.146-0.157,0.419-0.43,0.643-0.72c0.264-0.342,0.379-0.809,0.325-1.151c0.046-0.225,0.173-0.464,0.306-0.646 c0.149-0.205,0.138-0.687-0.097-1.073C29.224,23.023,29.372,23.796,29.306,24.469z"/><path fill="#827717" d="M21.318,27.287c0.034-0.115-0.023-0.253-0.103-0.247c-0.08,0.006-0.057,0.199-0.017,0.284 c0.04,0.084,0.057,0.199,0.069,0.356l0.126,0.078C21.318,27.661,21.284,27.402,21.318,27.287z"/><path fill="#fbc02d" d="M21.218,27.266c-0.106-0.039-0.136,0.016-0.095,0.103c0.055,0.115,0.195,0.127,0.244,0.042 c0.068-0.119,0.023-0.187-0.023-0.163C21.298,27.272,21.243,27.276,21.218,27.266z"/><path fill="#827717" d="M20.895,27.744c-0.088-0.018-0.271,0.012-0.255,0.094c0.016,0.083,0.159,0.103,0.254,0.037 c0.096-0.066,0.342-0.102,0.451-0.052l-0.106-0.106C21.093,27.748,20.983,27.761,20.895,27.744z"/><path fill="#fbc02d" d="M20.848,27.78c0.016,0.023,0.027,0.08,0.018,0.133c-0.01,0.053,0.065,0.08,0.155-0.021 c0.064-0.072,0.015-0.211-0.105-0.235C20.826,27.638,20.784,27.683,20.848,27.78z"/><path fill="#827717" d="M19.672,25.858c0.019,0.092,0.008,0.222-0.017,0.377l0.118,0.096 c-0.05-0.113-0.036-0.375,0.024-0.478c0.06-0.102,0.036-0.252-0.043-0.266C19.674,25.573,19.652,25.766,19.672,25.858z"/><path fill="#fbc02d" d="M19.704,25.808c-0.094-0.065-0.135-0.02-0.115,0.075c0.026,0.125,0.16,0.173,0.227,0.103 c0.094-0.098,0.065-0.175,0.015-0.164C19.781,25.834,19.727,25.823,19.704,25.808z"/><path fill="#827717" d="M19.301,26.229c-0.084-0.033-0.269-0.038-0.266,0.047c0.003,0.085,0.14,0.13,0.245,0.083 c0.105-0.048,0.414-0.029,0.513,0.039l-0.138-0.142C19.505,26.26,19.385,26.263,19.301,26.229z"/><path fill="#fbc02d" d="M19.249,26.256c0.012,0.026,0.014,0.083-0.004,0.134c-0.018,0.05,0.051,0.091,0.156,0.007 c0.075-0.06,0.049-0.205-0.065-0.251C19.25,26.112,19.201,26.149,19.249,26.256z"/><path fill="#827717" d="M18.845,24.045c-0.017,0.093-0.1,0.22-0.183,0.351l0.046,0.211c0.04-0.205,0.159-0.444,0.253-0.513 c0.094-0.068,0.129-0.215,0.062-0.262C18.957,23.785,18.863,23.952,18.845,24.045z"/><path fill="#fbc02d" d="M18.895,24.013c-0.061-0.099-0.117-0.075-0.135,0.02c-0.024,0.126,0.081,0.226,0.168,0.19 c0.123-0.05,0.127-0.133,0.077-0.143C18.955,24.069,18.909,24.036,18.895,24.013z"/><path fill="#827717" d="M18.32,24.184c-0.056-0.073-0.214-0.175-0.252-0.101c-0.039,0.074,0.058,0.187,0.171,0.201 c0.113,0.014,0.372,0.195,0.424,0.307l-0.051-0.195C18.482,24.319,18.377,24.257,18.32,24.184z"/><path fill="#fbc02d" d="M18.263,24.179c-0.002,0.028-0.028,0.079-0.068,0.113c-0.04,0.034,0.001,0.106,0.131,0.089 c0.093-0.012,0.141-0.151,0.064-0.251C18.332,24.056,18.273,24.061,18.263,24.179z"/><path fill="#1b5e20" d="M23.193,28.011c-0.126,0.036-0.212,0.078-0.287-0.054c-0.075-0.133-0.112-0.078-0.143-0.036 c-0.032,0.042-0.12,0.042-0.195-0.096c-0.075-0.139-0.138-0.184-0.229-0.175c-0.092,0.009-0.123,0.06-0.075,0.151 c0.049,0.09,0.003,0.16-0.075,0.075c-0.077-0.084-0.186-0.199-0.275-0.196c-0.089,0.003-0.175,0.015-0.117,0.106 c0.057,0.09,0.057,0.187-0.046,0.103c-0.097-0.079-0.169-0.116-0.258-0.109c-0.331-0.141-0.537-0.461-0.548-0.642 c-0.011-0.193-0.054-0.142-0.08-0.097c-0.026,0.045-0.109,0.107-0.143-0.042c-0.043-0.184-0.014-0.341-0.083-0.425 c-0.069-0.084-0.143-0.121-0.181,0.033c-0.037,0.154-0.12,0.069-0.117-0.06c0.003-0.13,0.006-0.253-0.049-0.311 c-0.054-0.057-0.095-0.054-0.095,0.069c0,0.124-0.052,0.148-0.109,0.033c-0.057-0.115-0.146-0.175-0.141-0.051 c0.002,0.044,0.008,0.079,0.012,0.115c-0.361-0.207-0.5-0.375-0.511-0.597c-0.01-0.193-0.006-0.284,0.057-0.362 c0.063-0.078,0.029-0.163-0.052-0.09c-0.08,0.072-0.161,0.048-0.143-0.078c0.017-0.127,0.069-0.289,0.023-0.386 c-0.046-0.096-0.15-0.093-0.178,0.036c-0.011,0.054-0.052,0.115-0.109,0.115s-0.052-0.133-0.029-0.217 c0.023-0.084-0.052-0.145-0.092-0.072s-0.132,0.145-0.172,0.036c-0.002-0.005-0.005-0.005-0.007-0.01 c-0.03-0.244-0.196-0.731-0.114-0.829c0.086-0.103,0.083-0.124,0.023-0.172c-0.06-0.048,0.001-0.144,0.095-0.181 c0.138-0.054,0.195-0.173,0.092-0.166c-0.169,0.012-0.269-0.018-0.169-0.078c0.122-0.073,0.253-0.165,0.227-0.271 c-0.011-0.045-0.069-0.057-0.132-0.033c-0.063,0.024-0.125-0.015-0.052-0.069c0.095-0.069,0.02-0.139,0.089-0.187 c0.069-0.048,0.043-0.115,0-0.108c-0.043,0.006-0.149,0.124-0.192,0.069c-0.043-0.054-0.096-0.113-0.146-0.006 c-0.072,0.154,0.017,0.25-0.029,0.323c-0.046,0.072-0.106,0.096-0.163,0.018c-0.057-0.078-0.141-0.054-0.146,0.042 c-0.006,0.096,0.037,0.157,0.097,0.247c0.06,0.09,0.049,0.16-0.06,0.106c-0.109-0.054-0.161-0.054-0.166,0.036 c-0.006,0.09,0.04,0.124,0.178,0.19c0.138,0.066,0.161,0.085,0.172,0.16c0.02,0.133,0.143,0.109,0.184,0.286 c0.034,0.152,0.099,0.378,0.113,0.602c-0.01,0.015-0.016,0.034-0.01,0.055c-0.097-0.036-0.109,0.043-0.075,0.09 c0.046,0.063,0.063,0.121,0,0.106c-0.063-0.015-0.186-0.06-0.163,0.039c0.023,0.099,0.229,0.172,0.361,0.199 c0.132,0.027,0.141,0.091,0.08,0.112c-0.06,0.021-0.097,0.012-0.189-0.003c-0.092-0.015-0.109,0.06-0.037,0.142 c0.072,0.081,0.261,0.105,0.347,0.115c0.138,0.015,0.149,0.124,0.089,0.121c-0.06-0.003-0.175-0.045-0.184,0.018 c-0.009,0.063,0.152,0.133,0.272,0.121c0.12-0.012,0.136,0.017,0.161,0.051c0.157,0.222,0.434,0.477,0.627,0.571 c-0.01,0.007-0.005,0.027-0.025,0.026c-0.1-0.003-0.181,0.015-0.098,0.096c0.083,0.081,0.143,0.1,0.198,0.112 c0.054,0.012,0.063,0.084,0.003,0.112c-0.06,0.027-0.117,0.009-0.169-0.015s-0.135,0.009-0.055,0.106 c0.08,0.097,0.204,0.145,0.361,0.145c0.158,0,0.212,0.072,0.118,0.127c-0.095,0.054-0.163,0.06-0.267,0.042 c-0.103-0.018-0.123,0.072,0.02,0.163s0.281,0.069,0.41,0.024c0.129-0.045,0.135,0.006,0.115,0.048 c-0.02,0.042-0.011,0.102,0.103,0.066c0.115-0.036,0.229-0.078,0.367,0.024c0.116,0.086,0.244,0.199,0.383,0.289 c-0.01,0.044-0.012,0.092-0.079,0.112c-0.068,0.02-0.158,0.066-0.192,0.112c-0.034,0.045-0.037,0.166,0.241,0.121 c0.278-0.045,0.29-0.03,0.267,0.06s-0.024,0.198,0.135,0.16c0.201-0.048,0.307-0.208,0.381-0.133 c0.045,0.046-0.01,0.114-0.052,0.16c-0.069,0.075,0.089,0.141,0.181,0.066c0.089-0.072,0.198-0.202,0.261-0.178 c0.063,0.024,0.003,0.108-0.02,0.157s0,0.151,0.112,0.094c0.112-0.057,0.181-0.407,0.525-0.359c0.1-0.196,0.909-0.299,1.574,0.28 c0.046,0.048,0.1,0.048,0.163,0.042s0.152-0.003,0.089-0.054C24.409,28.065,23.75,27.851,23.193,28.011z"/><path fill="#fff" d="M24.178,28.393c-0.011,0.034-0.048,0.118-0.066,0.139c0.146,0.116,0.328,0.218,0.366,0.348 c0.048-0.036,0.097-0.055,0.145-0.061C24.605,28.677,24.323,28.517,24.178,28.393z"/><path fill="#1b5e20" d="M24.112 28.531c-.016.034-.108.07-.138.101.124.123.304.252.395.367.034-.053.071-.092.109-.121C24.44 28.749 24.258 28.647 24.112 28.531zM23.856 27.845c-.169.009-.143.08-.143.334.011.174-.477.286-.537.671.058-.022.13-.041.204-.031.048-.153.529-.362.529-.663l-.001-.066C23.909 27.973 23.916 27.842 23.856 27.845z"/><path fill="#fff" d="M24.088,27.843c-0.027,0-0.058-0.001-0.092-0.001c-0.055,0-0.102,0.001-0.141,0.003 c0.06-0.003,0.053,0.128,0.053,0.245c0,0.042,0.001,0.094,0.001,0.143c-0.002-0.001-0.006-0.008-0.009-0.008 c-0.049,0.188-0.491,0.354-0.52,0.595c0.049,0.006,0.097,0.025,0.145,0.061c0.054-0.188,0.41-0.317,0.522-0.513c0,0,0,0,0,0 c0.011,0,0.024,0,0.035-0.001c0.077,0.015,0.059-0.16,0.059-0.276C24.141,27.973,24.148,27.84,24.088,27.843z"/><path fill="#dd2c00" d="M24.276,28.311c0.002-0.004,0.001-0.009,0.003-0.013c0.037-0.04,0.056-0.102,0.056-0.203 c0-0.009-0.001-0.013-0.001-0.021c0-0.001,0.001-0.002,0.001-0.004c0,0-0.001,0-0.001,0c-0.003-0.191-0.043-0.224-0.245-0.228 c0.056-0.003,0.053,0.114,0.052,0.224c0,0.005,0.008,0.149-0.093,0.3c-0.125,0.187-0.467,0.325-0.521,0.512 c0.038,0.028,0.075,0.067,0.109,0.121c0.108-0.139,0.415-0.312,0.583-0.564c0.147,0.096,0.389,0.256,0.405,0.383 c0.074-0.01,0.146,0.009,0.204,0.031C24.754,28.541,24.417,28.401,24.276,28.311z"/><path fill="#ef5350" d="M19.902,23.331c-0.161,0.163-0.075,0.314,0.006,0.398s0.269,0.194,0.367,0.09 c0.086-0.09,0.103-0.217,0.006-0.38C20.183,23.277,20.027,23.204,19.902,23.331z"/><path fill="#fbc02d" d="M19.678 22.843L19.818 23.099 19.879 23.063 19.738 22.807z"/><path fill="#fbc02d" d="M19.684,22.658c-0.124,0-0.125,0.206,0,0.206C19.806,22.864,19.814,22.658,19.684,22.658z"/><path fill="#e53935" d="M20.111,22.982c-0.084-0.008-0.108,0.033-0.114,0.126c-0.041-0.069-0.091-0.094-0.157-0.053 c-0.055,0.034-0.063,0.082-0.043,0.146c-0.044-0.031-0.086-0.037-0.131,0.009c-0.042,0.042-0.039,0.085-0.01,0.132 c-0.018,0.004-0.033,0.014-0.044,0.042c-0.026,0.064-0.01,0.102,0.085,0.13c0.093,0.027,0.131,0.006,0.146-0.034 c0.002-0.006-0.004-0.011-0.003-0.016c0.02-0.002,0.039-0.005,0.053-0.02c0.017-0.018,0.021-0.045,0.017-0.076 c0.038,0.026,0.071,0.033,0.1,0.014c0.022-0.014,0.036-0.042,0.041-0.079c0.011,0.007,0.02,0.02,0.033,0.021 c0.072,0.003,0.095-0.051,0.117-0.178C20.218,23.045,20.194,22.989,20.111,22.982z"/><path fill="#00897b" d="M20.613,23.771c-0.314-0.147-0.654,0.084-0.619,0.47c0.034,0.386,0.505,0.712,1.09,0.736 l0.241-0.314C21.014,24.616,21.152,24.025,20.613,23.771z"/><path fill="#00695c" d="M21.122,24.334c-0.077-0.205-0.173-0.46-0.488-0.607c-0.162-0.076-0.343-0.063-0.482,0.034 c-0.148,0.104-0.226,0.285-0.208,0.486c0.036,0.412,0.536,0.755,1.138,0.78l0.025,0.001l0.309-0.4l-0.083-0.014 C21.227,24.599,21.186,24.502,21.122,24.334z M21.06,24.927c-0.541-0.031-0.985-0.331-1.017-0.689 c-0.015-0.167,0.046-0.311,0.166-0.395c0.062-0.044,0.134-0.065,0.209-0.065c0.058,0,0.116,0.013,0.173,0.039 c0.279,0.131,0.363,0.355,0.438,0.553c0.052,0.137,0.101,0.267,0.213,0.321L21.06,24.927z"/><path fill="#00897b" d="M21.312,24.556c-0.401,0.265-0.273,0.577-0.161,0.712c0.161,0.193,0.883,0.314,1.388,0.145 l0.057-0.326C22.322,24.809,21.714,24.29,21.312,24.556z"/><path fill="#00695c" d="M21.285,24.514c-0.172,0.113-0.27,0.247-0.291,0.396c-0.029,0.193,0.084,0.347,0.119,0.389 c0.119,0.144,0.49,0.244,0.878,0.244c0.193,0,0.392-0.025,0.564-0.083l0.028-0.01l0.066-0.381l-0.019-0.019 C22.374,24.792,21.73,24.218,21.285,24.514z M22.496,25.374c-0.492,0.15-1.168,0.028-1.307-0.14 c-0.028-0.034-0.119-0.157-0.097-0.31c0.018-0.12,0.101-0.23,0.247-0.327c0.068-0.046,0.145-0.064,0.225-0.064 c0.364,0,0.809,0.401,0.979,0.569L22.496,25.374z"/><path fill="#00897b" d="M22.746,24.869c-0.447,0.277-0.287,0.687-0.023,0.88c0.264,0.193,1.078,0.109,1.434,0.012 c0.356-0.096,0.447-0.277,0.39-0.519C23.744,24.905,23.193,24.592,22.746,24.869z"/><path fill="#00695c" d="M24.59,25.207l-0.023-0.01c-0.108-0.046-0.212-0.091-0.312-0.134 c-0.652-0.285-1.127-0.49-1.535-0.237c-0.242,0.151-0.299,0.329-0.304,0.451c-0.008,0.186,0.099,0.382,0.277,0.513 c0.128,0.094,0.36,0.126,0.608,0.126c0.331,0,0.69-0.058,0.868-0.106c0.356-0.097,0.495-0.285,0.426-0.578L24.59,25.207z M24.145,25.714c-0.344,0.093-1.144,0.175-1.393-0.004c-0.119-0.088-0.243-0.246-0.236-0.429c0.006-0.141,0.095-0.269,0.257-0.369 c0.111-0.069,0.231-0.1,0.361-0.1c0.296,0,0.646,0.153,1.081,0.343c0.093,0.04,0.188,0.082,0.289,0.124 C24.534,25.433,24.511,25.614,24.145,25.714z"/><path fill="#00897b" d="M26.319,25.37c-0.118,0.163-0.097,0.302-0.533,0.283c-0.046,0.09-0.132,0.175-0.31,0.247 c0.075,0.012,0.281,0.084,0.637,0.199c0.355,0.115,0.591,0.06,0.935-0.139c0.344-0.199,0.287-0.525,0-0.766 C26.784,24.974,26.445,25.195,26.319,25.37z"/><path fill="#00695c" d="M26.74,25.056c-0.194,0.023-0.372,0.16-0.463,0.285c-0.022,0.031-0.04,0.062-0.057,0.091 c-0.066,0.114-0.101,0.183-0.434,0.172l-0.032-0.001l-0.015,0.028c-0.047,0.093-0.138,0.164-0.283,0.224l-0.167,0.067l0.178,0.028 c0.052,0.008,0.184,0.051,0.382,0.116l0.247,0.081c0.131,0.042,0.246,0.061,0.354,0.061c0.216,0,0.401-0.077,0.622-0.204 c0.199-0.115,0.252-0.258,0.261-0.357c0.015-0.164-0.078-0.343-0.254-0.49C26.981,25.074,26.857,25.039,26.74,25.056z M27.021,25.918c-0.354,0.206-0.571,0.24-0.894,0.134l-0.247-0.08c-0.108-0.036-0.195-0.064-0.262-0.085 c0.088-0.051,0.151-0.111,0.195-0.183c0.014,0.001,0.028,0.001,0.042,0.001c0.299,0,0.371-0.086,0.451-0.224 c0.015-0.026,0.031-0.054,0.052-0.082c0.074-0.104,0.229-0.225,0.393-0.245c0.101-0.014,0.188,0.015,0.263,0.078 c0.15,0.127,0.23,0.274,0.219,0.405C27.224,25.746,27.15,25.843,27.021,25.918z"/><path fill="#00897b" d="M24.593,25.207c-0.528,0.133-0.562,0.736-0.585,1.435c0,0.048,0.103,0.048,0.31,0.048 s0.315,0.012,0.31-0.072c0.034-0.88,1.285-0.35,1.193-1.206C25.779,25.027,25.12,25.074,24.593,25.207z"/><path fill="#00695c" d="M24.58,25.158c-0.579,0.146-0.602,0.826-0.622,1.484c0,0.098,0.112,0.098,0.359,0.098l0.067,0.001 c0.019,0,0.036,0,0.053,0c0.107,0,0.175-0.005,0.213-0.046c0.014-0.015,0.028-0.039,0.026-0.077 c0.017-0.401,0.303-0.479,0.604-0.563c0.3-0.082,0.64-0.176,0.589-0.648c-0.011-0.101-0.06-0.182-0.143-0.239 C25.444,24.971,24.832,25.097,24.58,25.158z M25.255,25.959c-0.31,0.085-0.659,0.182-0.678,0.657l0.001,0.011 c-0.018,0.014-0.105,0.014-0.193,0.014h-0.067c-0.114,0-0.223,0-0.259-0.012c0.024-0.753,0.078-1.256,0.547-1.373 c0.492-0.123,0.846-0.197,1.064-0.007c0.055,0.048,0.093,0.097,0.101,0.168C25.813,25.805,25.566,25.873,25.255,25.959z"/><path fill="#ef5350" d="M27.179,25.134c-0.16,0.103-0.201,0.229-0.155,0.326c0.046,0.096,0.241,0.072,0.367-0.006 c0.126-0.078,0.201-0.235,0.143-0.332C27.477,25.026,27.311,25.05,27.179,25.134z"/><path fill="#fbc02d" d="M27.679 24.947L27.729 24.998 27.924 24.785 27.874 24.734z"/><path fill="#fbc02d" d="M27.857,24.746c0.034,0.123,0.224,0.074,0.188-0.057C28.011,24.564,27.822,24.619,27.857,24.746z"/><path fill="#e53935" d="M27.695,25.12c0.073-0.041,0.098-0.101,0.055-0.165c-0.042-0.063-0.089-0.062-0.148-0.026 c0.021-0.052,0.023-0.1-0.027-0.133c-0.083-0.055-0.123-0.015-0.189,0.099c-0.064,0.111-0.041,0.176,0.005,0.202 c0.026,0.015,0.048,0.01,0.071,0.001c-0.003,0.022-0.005,0.042,0.007,0.059c0.016,0.022,0.036,0.021,0.056,0.022 c-0.019,0.023-0.026,0.05-0.021,0.075c0.013,0.074,0.069,0.085,0.191,0.08c0.096-0.004,0.159-0.039,0.147-0.126 C27.83,25.125,27.78,25.113,27.695,25.12z"/><path fill="#ef5350" d="M21.909,24.396c-0.169,0.121-0.218,0.359-0.123,0.51c0.095,0.151,0.255,0.108,0.344,0 c0.089-0.109,0.072-0.368,0.023-0.458L21.909,24.396z"/><path fill="#fbc02d" d="M22.028 24.291L22.094 24.311 22.168 24.025 22.101 24.006z"/><path fill="#fbc02d" d="M22.143,23.876c-0.124,0-0.125,0.206,0,0.206C22.265,24.082,22.273,23.876,22.143,23.876z"/><path fill="#e53935" d="M22.176,24.155c-0.063,0-0.094,0.051-0.096,0.103c-0.006-0.002-0.012,0.001-0.018,0 c0.023-0.064,0-0.148-0.086-0.148c-0.092,0-0.117,0.108-0.078,0.171c-0.029-0.021-0.053-0.05-0.063-0.093 c-0.108,0.113-0.006,0.293,0.142,0.253c0.01,0.022,0.017,0.047,0.041,0.055c0.039,0.013,0.073,0.003,0.102-0.022 c0.076,0.066,0.228,0.006,0.231-0.156c-0.022,0.01-0.067,0.022-0.115,0.027C22.298,24.288,22.285,24.155,22.176,24.155z"/><path fill="#ad6119" d="M25.797,18.38c-0.413-0.241-0.889-0.338-1.359-0.374c-0.366-0.028-0.54,0.039-0.592,0.175 c-0.281,0.006-0.366,0.127-0.44,0.283c-0.143,0.301,0.138,0.338,0.379,0.368c0.241,0.03,0.508,0.308,0.417,0.694 c-0.103-0.18-0.23-0.353-0.44-0.418c0.044-0.023,0.081-0.05,0.103-0.071c0.057-0.054,0.075-0.096-0.103-0.054 c-0.178,0.042-0.515-0.241-0.756-0.096c0.007-0.054,0.006-0.1,0.002-0.136c-0.029-0.221-0.063-0.109-0.112,0.009 c-0.028,0.068-0.077,0.121-0.138,0.166c-0.001-0.1-0.01-0.2-0.023-0.275c-0.023-0.13-0.069-0.054-0.075,0.1 c-0.003,0.069-0.02,0.165-0.047,0.262c-0.05,0.026-0.095,0.046-0.142,0.073c0.009-0.066,0.009-0.121-0.017-0.278 c-0.026-0.157-0.089-0.066-0.086,0.024c0.003,0.09-0.03,0.323-0.111,0.444c0.02-0.068,0.016-0.163-0.013-0.272 c-0.036-0.137-0.075-0.128-0.069,0.012c0.006,0.127-0.149,0.307-0.29,0.413c-0.183,0.137-0.215,0.223-0.131,0.32 c0.231,0.263,0.917,0.172,1.026,0.199c0.048,0.012,0.092,0.033,0.092,0.109c0,0.043,0.014,0.057,0.054,0.029 c-0.02,0.102-0.06,0.218-0.117,0.293c-0.051,0.068-0.036,0.074,0.04,0.073c-0.054,0.178-0.227,0.331-0.252,0.443 c-0.013,0.058,0.001,0.098,0.051,0.108c-0.063,0.229-0.218,0.338-0.206,0.567c0.012,0.229,0.183,0.519,0.161,0.657 c-0.02,0.121,0.074,0.105,0.144,0.058c0.04,0.043,0.08,0.089,0.121,0.134c-0.046,0.121,0.16,0.489,0.326,0.694 c-0.12-0.066-0.252-0.115-0.292-0.072c-0.03,0.032,0.047,0.196,0.22,0.344c-0.195,0.133-0.536,0.337-0.53,0.44 c0.006,0.103,0.239,0.16,0.502,0.196c-0.076,0.115-0.068,0.209,0.14,0.19c0.195-0.018,0.402-0.118,0.511-0.172 c0.097,0.134,0.21,0.169,0.247-0.253c0.043,0.06,0.08,0.111,0.108,0.154c0.127,0.196,0.196,0.296,0.246,0.234 c0.132,0.199,0.202,0.296,0.253,0.405c0.052,0.109,0.161,0.202,0.212-0.124c0.04,0.07,0.074,0.128,0.103,0.178 c0.075,0.127,0.192,0.112,0.242-0.161c0.063,0.115,0.136,0.179,0.154-0.158c0.04,0.115,0.143,0.29,0.126-0.024 c0.252,0.253,0.298,0.289,0.384,0.374c0.086,0.084,0.212,0.103,0.304,0.006c0.165,0.158,0.355,0.115,0.43-0.006 c0.166,0.133,0.436,0.024,0.476-0.121c0.061,0.041,0.132,0.042,0.287,0.036c0.212-0.008,0.433-0.099,0.155-0.302 c-0.596-0.434-1.572-1.098-1.973-1.411c-0.016-0.293-0.041-0.658-0.137-0.977c0.155,0.205,0.269,0.248,0.384,0.278 s0.15-0.042,0.333,0.277c0.086,0.151,0.12,0.205,0.212,0.289c0.092,0.084,0.12,0.048,0.023-0.163 c-0.097-0.211-0.287-0.489-0.459-0.694c0.172,0.187,0.178,0.181,0.333,0.247c0.155,0.066,0.292,0.235,0.35,0.422 c0.057,0.187,0.166,0.386,0.201,0.458c0.034,0.072,0.085,0.04,0.046-0.145c-0.043-0.202-0.145-0.513-0.242-0.706 c0.138,0.145,0.311,0.277,0.334,0.537c0.023,0.259,0.086,0.464,0.149,0.573s0.086,0.024,0.08-0.145 c-0.006-0.169-0.048-0.523-0.117-0.819c0.109,0.177,0.178,0.333,0.191,0.439c0.046,0.38,0.212,0.609,0.212,1.031 c0,0.145,0.087,0.367,0.115,0.091c0.04-0.398-0.096-1.152-0.102-1.544c0.053,0.105,0.096,0.221,0.113,0.362 c0.046,0.374,0.172,0.603,0.189,1.013c0.017,0.41,0.094,0.645,0.138,0.374c0.149-0.935-0.093-1.325-0.041-1.982 c0.081,0.118,0.157,0.247,0.156,0.39c-0.006,1.043,0.097,1.2,0.097,1.695c0,0.181,0.026,0.446,0.138,0.054 c0.12-0.422,0.12-1.038,0.12-1.405C28.315,19.782,26.21,18.621,25.797,18.38z"/><path fill="#c47529" d="M25.797,18.38c-0.413-0.241-0.889-0.338-1.359-0.374c-0.366-0.028-0.54,0.039-0.592,0.175 c-0.281,0.006-0.366,0.127-0.44,0.283c-0.143,0.301,0.138,0.338,0.379,0.368c0.105,0.013,0.219,0.025,0.61-0.003 c0.332-0.024,0.577-0.05,0.874,0.032c0.648,0.18,1.241,0.734,1.641,1.235c0.464,0.582,0.894,1.988,0.894,1.988 c0.081,0.118,0.157,0.247,0.156,0.39c-0.006,1.043,0.097,1.2,0.097,1.695c0,0.181,0.026,0.446,0.138,0.054 c0.12-0.422,0.12-1.038,0.12-1.405C28.315,19.782,26.21,18.621,25.797,18.38z"/><path fill="#9e5817" d="M23.193,23.114c-0.12-0.066-0.252-0.115-0.292-0.072c-0.03,0.032,0.047,0.196,0.22,0.344 c-0.195,0.133-0.536,0.337-0.53,0.44c0.006,0.103,0.239,0.16,0.502,0.196c-0.076,0.115-0.068,0.209,0.14,0.19 c0.195-0.018,0.402-0.118,0.511-0.172c0.097,0.134,0.21,0.169,0.247-0.253c0.025,0.034-0.039-0.175-0.25-0.465 C23.463,23.047,23.03,22.913,23.193,23.114z"/><path fill="#c47529" d="M24.651,23.6c-0.4,0.118-0.338,0.614-0.306,0.575c0.132,0.199,0.202,0.296,0.253,0.405 c0.052,0.109,0.161,0.202,0.212-0.124c0.04,0.07,0.074,0.128,0.103,0.178c0.075,0.127,0.192,0.112,0.242-0.161 c0.063,0.115,0.136,0.179,0.154-0.158c0.04,0.115,0.143,0.29,0.126-0.024c0.252,0.253,0.113-0.239-0.157-0.486 C25.234,23.763,25.106,23.576,24.651,23.6z"/><path fill="#fff" d="M22.204,19.36l-0.287,0.311c-0.006,0.057,0.1,0.06,0.181,0.045c0.08-0.015,0.181-0.09,0.192-0.181 C22.302,19.445,22.273,19.357,22.204,19.36z"/><path fill="#fbc02d" d="M22.109 19.821c-.145-.126-.317-.023-.391-.131-.075.006-.145.086-.096.168-.252.157-.268.467-.149.651.097.151.35.145.419.133-.132-.048-.189-.362-.126-.446.063-.084.195-.253.516.102.103-.102.206-.193.304-.199.126-.006.252-.127.172-.235C22.677 19.755 22.235 19.931 22.109 19.821zM25.826 24.929c-.281.006-.492-.173-.67-.457-.036.247-.174.334-.271.113.04.151-.212.265-.35.211-.138-.054-.298.006-.298.193 0 .121.057.222.178.252-.023.09.086.218.218.224.132.006.241-.115.241-.247.178.036.436-.157.625-.03.052.151.207.181.384.078C26.061 25.165 25.986 24.926 25.826 24.929z"/><path fill="#212121" d="M24.406 25.225c-.166.036-.209.295.014.398-.075-.148.158-.178.158-.25S24.573 25.189 24.406 25.225zM24.183 24.878c-.172.006-.301.253-.126.389-.043-.208.163-.112.224-.157C24.34 25.065 24.355 24.872 24.183 24.878zM25.86 25.15c-.037.039-.083.145-.006.196.077.051.083.127.017.208.247-.03.264-.223.207-.338S25.897 25.11 25.86 25.15z"/><path fill="#fbc02d" d="M22.666,23.054c-0.092-0.127-0.462-0.01-0.645-0.033c-0.149-0.034-0.263,0.051-0.279,0.164 c-0.086-0.012-0.157,0.039-0.188,0.153c-0.046,0.006-0.1,0.045-0.1,0.124c0,0.078,0.058,0.248,0.149,0.336 c0.092,0.087,0.126,0.033,0.175-0.055c0.043,0.018,0.095,0.006,0.154-0.057c0.033,0.001,0.075-0.014,0.126-0.052 c0.112,0.07,0.205,0.114,0.241,0.162c0.04,0.054,0.098,0.042,0.215-0.075c0.192,0.024,0.536,0.087,0.731,0.136 c0.092-0.081,0.215-0.127,0.295-0.148c-0.31-0.091-0.645-0.189-0.76-0.238C22.909,23.34,22.732,23.15,22.666,23.054z"/><path fill="#212121" d="M21.93 23.676c-.02.032-.072.075-.152.067-.019.036-.051.083-.093.096.019.052.149.043.222-.014.147.041.232-.026.232-.027.039-.001.08-.011.123-.039-.063-.051-.153-.099-.204-.126C22.025 23.659 21.976 23.673 21.93 23.676zM21.909 23.331c.006.091.082.104.161.082.052-.015.065-.057.063-.166-.003-.144.046-.196.086-.299C21.96 22.93 21.897 23.15 21.909 23.331z"/><path fill="#558b2f" d="M21.066 19.867c.089-.019.078.048.3-.076.084-.047.182-.205.159-.265-.103.115-.327.241-.407.169-.08-.072-.017-.175.075-.271.092-.096.149-.271.172-.35.053-.182-.034-.127-.12-.048-.086.078-.247.199-.413.302-.166.102-.187.222-.12.398.046.121.063.241.069.356.006.113.145.414.626.224.007-.003-.009-.048.003-.124.026-.172.14-.254.126-.254C21.349 19.924 21.087 19.979 21.066 19.867zM21.937 20.081c-.169.034-.214.153-.195.273.155.119.224.339.057.469-.528.412-1.027.826-.797 1.562.175.562.631.457.786.464l-.282-.491c-.241-.362-.168-.621.437-1.095.585-.458.456-.73.338-.965C22.236 20.241 22.064 20.056 21.937 20.081z"/><path fill="#558b2f" d="M21.453,23.461c-0.046,0.001-0.084,0.024-0.118,0.003c-0.224-0.139-0.12-0.627-0.447-0.76 c-0.327-0.133-0.287-0.296-0.183-0.519c0.103-0.223,0.069-0.868-0.487-0.88c-0.556-0.012-0.161,0.211,0.017,0.302 c0.178,0.091,0.293,0.199,0.201,0.47c-0.092,0.271-0.236,0.603,0.12,0.868c0.235,0.175,0.308,0.236,0.361,0.537 c0.08,0.452,0.399,0.63,0.772,0.357C21.569,23.821,21.476,23.62,21.453,23.461z"/><path fill="#fbc02d" d="M19.79,21.245c-0.094,0.029-0.115,0.06-0.033,0.134c0.056,0.051,0.007,0.159,0.131,0.193 c0.106,0.029,0.134-0.088,0.109-0.132c-0.018-0.033-0.001-0.099,0.031-0.125c0.039-0.032,0.071-0.142-0.035-0.171 C19.869,21.109,19.862,21.222,19.79,21.245z"/><path fill="#fbc02d" d="M19.931,21.283c-0.094,0.029-0.115,0.06-0.033,0.134c0.056,0.051,0.007,0.159,0.131,0.193 c0.106,0.029,0.134-0.088,0.109-0.132c-0.018-0.033-0.002-0.099,0.031-0.125c0.039-0.032,0.071-0.143-0.035-0.171 C20.011,21.148,20.004,21.261,19.931,21.283z"/><path fill="#fbc02d" d="M20.073,21.322c-0.094,0.029-0.115,0.06-0.033,0.134c0.056,0.051,0.007,0.159,0.131,0.193 c0.106,0.029,0.134-0.088,0.109-0.132c-0.018-0.033-0.002-0.099,0.031-0.125c0.039-0.032,0.071-0.143-0.035-0.171 C20.152,21.186,20.145,21.299,20.073,21.322z"/><path fill="#827717" d="M21.938 20.07c-.083.004-.159.086-.189.159.396.06.63.683.263.978.508-.426.453-.721.269-.909C22.236 20.241 22.067 20.063 21.938 20.07zM21.53 22.318c-.131-.121-.181-.362-.082-.548-.241.314-.285 1.051.323 1.079.264.012.462.028.447.099-.007.033-.104.138-.085.336.046-.002.101.004.126.038.036.048.019.118.036.151.183-.078.495-.268.313-.739C22.379 22.143 21.755 22.525 21.53 22.318z"/><path fill="#827717" d="M22.312,19.999c-0.099,0.043-0.206,0.135-0.206,0.135l0.096,0.079c0,0,0.14-0.115,0.221-0.135 c0.081-0.02,0.079-0.093,0.056-0.104C22.456,19.963,22.385,19.968,22.312,19.999z"/><path fill="#ef6c00" d="M22.026,19.52c-0.042,0.04-0.097,0.14-0.097,0.14s0.076,0.022,0.142,0.012 c0.064-0.01,0.118-0.035,0.152-0.105c0.047-0.097-0.044-0.188-0.044-0.188S22.069,19.48,22.026,19.52z"/><path fill="#212121" d="M21.985,19.555c-0.004,0.041,0.125,0.043,0.147-0.019c0.028-0.079-0.02-0.1-0.02-0.1L21.985,19.555z"/><path fill="#fff" d="M22.045 19.520000000000003A0.019 0.019 0 1 0 22.045 19.558A0.019 0.019 0 1 0 22.045 19.520000000000003Z"/><path fill="#827717" d="M21.434,19.207c-0.118-0.047-0.106-0.039-0.106-0.039l-0.034,0.091 c0.061-0.014,0.314,0.094,0.314,0.094S21.552,19.254,21.434,19.207z"/><path fill="#212121" d="M21.041,19.309c0,0.016,0.013,0.028,0.028,0.028c0.016,0,0.028-0.013,0.028-0.028 c0-0.016-0.013-0.028-0.028-0.028C21.053,19.281,21.041,19.294,21.041,19.309z"/></svg>