<?xml version="1.0" encoding="utf-8"?>
<!--Generator: Adobe Illustrator 16.0.0, SVG Export Plug-In . SVG Version: 6.00 Build 0)-->
<!DOCTYPE svg PUBLIC "-//W3C//DTD SVG 1.1//EN" "http://www.w3.org/Graphics/SVG/1.1/DTD/svg11.dtd">
<svg xmlns="http://www.w3.org/2000/svg" xmlns:xlink="http://www.w3.org/1999/xlink" viewBox="0 0 50 50" width="50px" height="50px">
  <path fill="none" stroke="#716E7B" stroke-width="2" stroke-linecap="round" stroke-miterlimit="10" d="M47,10H3c-1.104,0-2,0.896-2,2v32c0,1.104,0.896,2,2,2h44c1.104,0,2-0.896,2-2V12C49,10.896,48.104,10,47,10z"/>
  <path fill="none" stroke="#716E7B" stroke-width="2" stroke-linecap="round" stroke-miterlimit="10" d="M1,27c0,1.104,0.896,2,2,2h44c1.104,0,2-0.896,2-2"/>
  <path fill="none" stroke="#716E7B" stroke-width="2" stroke-linecap="round" stroke-miterlimit="10" d="M32,9V6c0-1.104-0.896-2-2-2H20c-1.104,0-2,0.896-2,2v3"/>
  <circle cx="25" cy="24" r="2" stroke="#716E7B" fill="#716E7B"/>
</svg>
