<?xml version="1.0" encoding="iso-8859-1"?>
<!-- Generator: Adobe Illustrator 22.0.1, SVG Export Plug-In . SVG Version: 6.00 Build 0)  -->
<svg version="1.1" id="&#x421;&#x43B;&#x43E;&#x439;_2"
	 xmlns="http://www.w3.org/2000/svg" xmlns:xlink="http://www.w3.org/1999/xlink" x="0px" y="0px" viewBox="0 0 50 50"
	 style="enable-background:new 0 0 50 50;" xml:space="preserve">
<path style="fill:none;stroke:#716E7B;stroke-width:2;stroke-linecap:round;stroke-linejoin:round;stroke-miterlimit:10;" d="M28,16
	h0.16c4.043,0,7.589,2.696,8.672,6.591l2,7.197c0.341,1.229-0.43,2.49-1.68,2.745l-1.168,0.238"/>
<path style="fill:none;stroke:#716E7B;stroke-width:2;stroke-linecap:round;stroke-linejoin:round;stroke-miterlimit:10;" d="M28,36
	h4v9c0,1.105-0.895,2-2,2l0,0c-1.105,0-2-0.895-2-2V36z"/>
<circle style="fill:none;stroke:#716E7B;stroke-width:2;stroke-linecap:round;stroke-linejoin:round;stroke-miterlimit:10;" cx="26" cy="8" r="5"/>
<path style="fill:none;stroke:#716E7B;stroke-width:2;stroke-linecap:round;stroke-linejoin:round;stroke-miterlimit:10;" d="M16,32
	c0-3.833,0-7.667,0-11.5c0-2.481,2.018-4.5,4.5-4.5c0.097,0,0.175-0.003,0.9,0c1.543,0.007,2.784,0.004,3.6,0c0,6.333,0,12.667,0,19
	l0-2v11.667"/>
<path style="fill:none;stroke:#716E7B;stroke-width:2;stroke-linecap:round;stroke-linejoin:round;stroke-miterlimit:10;" d="M16,32
	c0,1.105,0.895,2,2,2s2-0.895,2-2"/>
<path style="fill:none;stroke:#716E7B;stroke-width:2;stroke-linecap:round;stroke-linejoin:round;stroke-miterlimit:10;" d="
	M25,44.5c0,1.381-1.119,2.5-2.5,2.5S20,45.881,20,44.5V23"/>
<path style="fill:none;stroke:#716E7B;stroke-width:2;stroke-linecap:round;stroke-linejoin:round;stroke-miterlimit:10;" d="M28,16
	c0,6.667,0,13.333,0,20h8.609L33,23"/>
</svg>