<?xml version="1.0" encoding="iso-8859-1"?>
<!-- Generator: Adobe Illustrator 19.2.0, SVG Export Plug-In . SVG Version: 6.00 Build 0)  -->
<svg xmlns="http://www.w3.org/2000/svg" xmlns:xlink="http://www.w3.org/1999/xlink" viewBox="0 0 50 50" width="50px" height="50px">
  <line style="fill:none;stroke:#716E7B;stroke-width:2;stroke-linecap:round;stroke-linejoin:round;stroke-miterlimit:10;" x1="32" y1="41" x2="18" y2="41"/>
  <line style="fill:none;stroke:#716E7B;stroke-width:2;stroke-linecap:round;stroke-linejoin:round;stroke-miterlimit:10;" x1="32" y1="37" x2="18" y2="37"/>
  <path style="fill:none;stroke:#716E7B;stroke-width:2;stroke-linecap:round;stroke-linejoin:round;stroke-miterlimit:10;" d="M27.077,26.779c-0.061-0.675-0.038-1.146-0.038-1.762c0.308-0.161,0.858-1.183,0.951-2.046c0.242-0.02,0.623-0.254,0.734-1.18c0.06-0.497-0.179-0.777-0.324-0.865c0.393-1.176,1.21-4.814-1.511-5.19C26.609,15.247,25.892,15,24.961,15c-3.728,0.068-4.178,2.799-3.361,5.926c-0.145,0.088-0.384,0.368-0.324,0.865c0.112,0.926,0.493,1.16,0.734,1.18c0.093,0.863,0.665,1.886,0.973,2.046c0,0.616,0.023,1.087-0.038,1.762C22.207,28.751,17.23,28.197,17,32h16C32.771,28.197,27.815,28.751,27.077,26.779z"/>
  <path style="fill:none;stroke:#716E7B;stroke-width:2;stroke-linecap:round;stroke-miterlimit:10;" d="M28,7h10c1.105,0,2,0.895,2,2v37c0,1.105-0.895,2-2,2H12c-1.105,0-2-0.895-2-2V9c0-1.105,0.895-2,2-2h10"/>
  <path style="fill:none;stroke:#716E7B;stroke-width:2;stroke-linecap:round;stroke-linejoin:round;stroke-miterlimit:10;" d="M28,10h-6V5c0-1.657,1.343-3,3-3h0c1.657,0,3,1.343,3,3V10z"/>
  <circle cx="25" cy="5" r="1" style="fill:#716E7B;"/>
</svg>