<?xml version="1.0" encoding="utf-8"?><!-- Generator: Adobe Illustrator 18.1.1, SVG Export Plug-In . SVG Version: 6.00 Build 0)  --><svg xmlns="http://www.w3.org/2000/svg" xmlns:xlink="http://www.w3.org/1999/xlink" viewBox="0 0 50 50" width="50px" height="50px"><path fill="none" stroke="#716E7B" stroke-width="2" stroke-miterlimit="10" d="M29,17h-8c-1.1,0-2-0.9-2-2v-5c0-1.1,0.9-2,2-2h8c1.1,0,2,0.9,2,2v5C31,16.1,30.1,17,29,17z"/><path fill="none" stroke="#716E7B" stroke-width="2" stroke-miterlimit="10" d="M29,42h-8c-1.1,0-2-0.9-2-2v-5c0-1.1,0.9-2,2-2h8c1.1,0,2,0.9,2,2v5C31,41.1,30.1,42,29,42z"/><path fill="none" stroke="#716E7B" stroke-width="2" stroke-miterlimit="10" d="M11,42H3c-1.1,0-2-0.9-2-2v-5c0-1.1,0.9-2,2-2h8c1.1,0,2,0.9,2,2v5C13,41.1,12.1,42,11,42z"/><path fill="none" stroke="#716E7B" stroke-width="2" stroke-miterlimit="10" d="M47,42h-8c-1.1,0-2-0.9-2-2v-5c0-1.1,0.9-2,2-2h8c1.1,0,2,0.9,2,2v5C49,41.1,48.1,42,47,42z"/><line fill="none" stroke="#716E7B" stroke-width="2" stroke-miterlimit="10" x1="25" y1="17" x2="25" y2="33"/><path fill="none" stroke="#716E7B" stroke-width="2" stroke-miterlimit="10" d="M43,33v-6c0-2.2-1.8-4-4-4H11c-2.2,0-4,1.8-4,4v6"/></svg>
